# xmcd CD database file
#
# Track frame offsets:
#	150
#	24990
#	39607
#	61560
#	72655
#	107320
#	117215
#	127855
#	140995
#	155257
#	179470
#	195020
#
# Disc length: 2756 seconds
#
# Revision: 0
# Processed by: cddbd v1.4PL0 Copyright (c) Steve Scherf et al.
# Submitted via: Feurio! 1.65 - http://www.feurio.com
#
DISCID=970ac20c
DTITLE=John Mellencamp - The Best Of -1994 -(John Cougar Mellencamp)
DYEAR=1994
DGENRE=country rock
TTITLE0=Kid Inside
TTITLE1=Take What You Want
TTITLE2=American Son
TTITLE3=Young Genocides
TTITLE4=Too Young To Live
TTITLE5=Jailhouse Rock
TTITLE6=American Dream
TTITLE7=Oh Pretty Woman
TTITLE8=Good Girls
TTITLE9=Chestnut Street Revisited
TTITLE10=Sad Lady
TTITLE11=Supergirl
EXTD=Edel-1994
EXTT0=
EXTT1=
EXTT2=
EXTT3=
EXTT4=
EXTT5=
EXTT6=
EXTT7=
EXTT8=
EXTT9=
EXTT10=
EXTT11=
PLAYORDER=
